<?xml version="1.0" encoding="utf-8"?>
<!-- Generator: Adobe Illustrator 24.1.2, SVG Export Plug-In . SVG Version: 6.00 Build 0)  -->
<svg version="1.1" id="Layer_1" xmlns="http://www.w3.org/2000/svg" xmlns:xlink="http://www.w3.org/1999/xlink" x="0px" y="0px"
	 viewBox="0 0 3000 3000" style="enable-background:new 0 0 3000 3000;" xml:space="preserve">
<style type="text/css">
	.st0{display:none;fill:#FFFFFF;}
	.st1{fill-rule:evenodd;clip-rule:evenodd;fill:#F3C124;}
	.st2{fill-rule:evenodd;clip-rule:evenodd;fill:#D4227A;}
	.st3{fill-rule:evenodd;clip-rule:evenodd;fill:#2E8EC1;}
	.st4{fill-rule:evenodd;clip-rule:evenodd;fill:#1C1C1E;}
</style>
<g id="Layer_1-2">
	<rect class="st0" width="3000" height="3000"/>
	<g id="_2016501455264">
		<path class="st1" d="M1256.8,1485.6c-102.5,87.5-107,145-1.9,193.8c47,21.9,85.6,63.7,31.1,107.4
			c-150.8,121.1,54.4,244.5,123.8,102.5C1440.1,1827.4,1430.4,1673,1256.8,1485.6L1256.8,1485.6z M1063.5,1097.4
			c0,0,47.5,66.5,6.7,87.4s-63.7-2.8-61.8,57s-25.7,85.5-50.4,78.9s-32.3,26.6-76,35.2s-47.5-49.4-36.1-60.8
			S926.7,1130.6,1063.5,1097.4L1063.5,1097.4z"/>
		<path class="st2" d="M940.4,1512.8c4.2-2.5,8.6-4.7,13.2-6.5c39.9-72.5,174-26.8,125.5,65.7c-27.7,52.8-71.7,49.8-30.4,91.6
			c70.6,71.6,6.4,115.9-61.7,104.6c-14.8-2.4-16.4-25.7-31.8-31.5C955.2,1736.7,890.4,1626.8,940.4,1512.8L940.4,1512.8z
			 M1464.3,1700.6c0,0,57.1,10.7,55.2,50.3s1,68.1,59,90c56.4,21.3,71.1,99.7-20.2,134.1c-22.1,8.3-20.7,19.4-31.9,50.7
			c-14.5,40.7-65.8,41.6-75.5-15.5S1380.9,1839,1464.3,1700.6L1464.3,1700.6z"/>
		<path class="st3" d="M1627.5,1183.9c0,0,17.9,98.8-91.3,137.9s-65.5,139.9-83,201.6s-162.3,52.1-229.2-67.3
			c-94.4-168.6,49.1-379.2,226.6-369.3C1513.6,1090.4,1555.2,1107.8,1627.5,1183.9L1627.5,1183.9z M1856.9,2084.2
			c0,0-26.9-20.8-64.8-17.1s-47.7,35.5-28.1,83.2s-19.6,40.4-3.7,79.5s104,22,106.4-29.4S1856.9,2084.2,1856.9,2084.2L1856.9,2084.2
			z M914.8,2237.1c35.3-41.6,35.2-13.4,103.6-17.7s97.8-63.3,42.9-101.8c-38.3-26.9-69.9-52.9-74.5-75.7
			c-49.3-245.5-125.9-148.6-176-82.5C766.5,2017.9,907,2246.2,914.8,2237.1z"/>
		<path class="st4" d="M1677.8,1454.8c11.7,0,21.2,9.5,21.2,21.2c0,11.7-9.5,21.2-21.2,21.2c-11.7,0-21.2-9.5-21.2-21.2c0,0,0,0,0,0
			C1656.6,1464.3,1666.1,1454.8,1677.8,1454.8z M1748.1,1784.7c-18.1,0-32.7,14.6-32.7,32.7c0,18.1,14.6,32.7,32.7,32.7
			c18.1,0,32.7-14.6,32.7-32.7c0,0,0,0,0,0C1780.8,1799.3,1766.2,1784.7,1748.1,1784.7z M1741.5,1514.9c11.7,0,21.2,9.5,21.2,21.2
			c0,11.7-9.5,21.2-21.2,21.2c-11.7,0-21.2-9.5-21.2-21.2c0,0,0,0,0,0C1720.3,1524.4,1729.8,1514.9,1741.5,1514.9L1741.5,1514.9z
			 M1781.2,1439.9c11.7,0,21.2,9.5,21.2,21.2c0,11.7-9.5,21.2-21.2,21.2c-11.7,0-21.2-9.5-21.2-21.2l0,0
			C1760,1449.4,1769.5,1439.9,1781.2,1439.9L1781.2,1439.9z"/>
		<path class="st4" d="M1865.7,2240.5c-28.6-79.7-44.6-124.4-39.4-163.6c5.5-42,32.4-69.8,89.4-112.9c37.2-28.1,39.1-68.4,31-111.1
			c-6.5-34.6-13.9-55.3-22.5-65.4c-3.7-4.4-8.4-5.1-14.1-3.3c-25.8,8.1-55.7,9.7-82.7,7.4c-54.8-34.5-71.5-43.4-134.7-54.3
			c-43.5-7.6-82.8-15.2-117.7-45.3c-19-16.4-34.2-38-43-66.7c-32,35-54.4,77.7-67.6,122.7c-19.2,65.4-19.2,135.2-1.6,193.1
			c41.3,135.7,16.5,197.3-102.5,268.2c-124.8,74.3-259.9,130.3-393.1,187.8c-98.4-172.5-204.7-343.8-282.4-526.8
			c-205.1-483.4-147.9-828.4,20-1035.3c75.8-93.4,174.1-158.5,281.1-195.5c106.8-36.7,221.2-45.9,332.5-26.7
			c221.2,38.3,422.3,188.3,493.5,448.6c458.1-119.8,758.7,286.9,584.6,696.4c-95,223.6-291.2,375.7-494.9,495.7l-25.7,15.1
			L1865.7,2240.5L1865.7,2240.5z M1748.3,1784.8c-18.1,0-32.7,14.7-32.7,32.7s14.7,32.7,32.7,32.7c18.1,0,32.7-14.6,32.7-32.7
			C1781.1,1799.4,1766.4,1784.8,1748.3,1784.8z M1537.1,1221.9c5.4,7.8,3.4,18.6-4.4,24s-18.6,3.4-24-4.4
			c-11.3-16.3-33.6-20.4-49.9-9.1c-14.5,10-19.5,29-12,44.9c4,8.7,0.2,18.9-8.5,22.9c-8.6,3.9-18.7,0.3-22.8-8.2
			c-16.6-35.2-1.5-77.1,33.7-93.7C1480.3,1183.6,1517.5,1193.6,1537.1,1221.9L1537.1,1221.9z M1891,1450.2c-1.8-1-3.4-2.1-5.1-3.1
			c-36.6-24.2-48.8-65.9-34.5-106.7c-66.7-26.5-155.3-62.5-189.9-80.8c-27.1-14.3-41.5-36.9-57.9-62.7
			c-18.9-29.8-41.3-64.9-93.8-89.6c-204.7-96.5-437.4-40.1-575.6,116.4c-231,261.5-109.7,824.9,53.9,1110.3
			c117.7-50.8,236.3-101.4,346.7-167.1c98.8-58.8,115-98.5,80.6-211.4c-1.7-5.5-3.2-11.1-4.6-16.8c-6.2,8.4-13.1,16.3-20.6,23.5
			c-53,51.2-128.5,64.3-198.4,46.3c-195-50.1-328.3-332.6-269.3-529.1c3.9-13.1,17.7-20.6,30.8-16.7c13.1,3.9,20.6,17.7,16.7,30.8
			c-51.1,170.2,67,424.1,234,467c52.9,13.6,111.5,4.9,151.9-34.1c39.3-38,56.2-101.6,30.3-180.8c-15.3-46.9-52.5-97-90.5-148.4
			c-86.5-116.8-177.5-239.7-74-378.5c8.2-11,23.7-13.2,34.7-5c11,8.2,13.2,23.7,5,34.7c-81.5,109.3-1.7,217,74,319.3
			c35.2,47.5,69.6,93.9,89.7,141c32.6-88.4,75.4-126.4,145.5-181.5c2.5,44.7-0.4,95.3,36.8,127.3c12.5,10.7,27.8,18.1,44.4,23.3
			C1789,1669.7,1858.1,1544.5,1891,1450.2L1891,1450.2z M783.9,1966.5c-43.8-257.1-63.8-573.9,111.8-774.7
			c151-172.6,405.1-232.9,632.4-130.9c67.1,30.1,94.4,73.1,117.5,109.3c12.7,19.9,23.7,37.3,39,45.4c83.5,44.2,192.7,82.2,285,117.7
			c-20.3,136.6-81.4,301.4-211.8,366.8c24,7,45.5,17.9,85.3,42.8c10.2,0.3,32.6,0.2,52.4-6c25.6-8,47.7-3.8,66.7,18.6
			c14.1,16.7,25.2,44.8,33.4,88.3c11.6,62.1,3.2,119.7-49.9,159.8c-45.7,34.5-66.9,55-70.2,79.7c-3.1,23.7,7.2,57.1,26.8,112.2
			c184.4-111.7,362.2-253.7,448.7-457.1c163.8-385.3-124.3-750.1-549.7-622.5l-25.2,7.6l-6-25.7c-59.7-254.1-250-399.8-460-436.2
			c-102.4-17.7-209.3-9.6-308,24.5c-98.5,34-189,94-258.8,180c-157.4,194-209.5,521.2-12.8,984.6
			C747,1889.9,765,1928.4,783.9,1966.5L783.9,1966.5z"/>
	</g>
</g>
</svg>
